<svg xmlns="http://www.w3.org/2000/svg" xmlns:xlink="http://www.w3.org/1999/xlink" width="1024" zoomAndPan="magnify" viewBox="0 0 768 767.999994" height="1024" preserveAspectRatio="xMidYMid meet" version="1.0"><defs><clipPath id="bac5f4f6ac"><path d="M 149 114.507812 L 652 114.507812 L 652 670.257812 L 149 670.257812 Z M 149 114.507812 " clip-rule="nonzero"/></clipPath><clipPath id="0e4db8b14c"><path d="M 267.566406 221.015625 L 533.066406 221.015625 L 533.066406 512 L 267.566406 512 Z M 267.566406 221.015625 " clip-rule="nonzero"/></clipPath></defs><path fill="#c77b3c" d="M 639.808594 196.308594 L 400.410156 121.953125 L 161.121094 196.308594 C 161.121094 196.308594 102.882812 569.632812 400.410156 662.769531 C 698.046875 569.632812 639.808594 196.308594 639.808594 196.308594 Z M 639.808594 196.308594 " fill-opacity="1" fill-rule="nonzero"/><path fill="#c77b3c" d="M 400.410156 663.878906 L 400.078125 663.769531 C 331.949219 642.429688 276.933594 604.640625 236.589844 551.183594 C 204.246094 508.503906 181.238281 455.933594 168.011719 394.804688 C 145.5625 290.890625 159.789062 196.972656 159.898438 196.085938 L 160.011719 195.417969 L 400.410156 120.730469 L 400.746094 120.84375 L 640.808594 195.417969 L 640.921875 196.085938 C 641.03125 196.972656 655.257812 290.777344 632.808594 394.804688 C 619.582031 455.933594 596.574219 508.503906 564.234375 551.183594 C 523.890625 604.53125 468.875 642.429688 400.746094 663.769531 Z M 162.121094 197.195312 C 160.898438 205.867188 149.007812 295.558594 170.347656 394.472656 C 183.460938 455.265625 206.355469 507.613281 238.476562 549.960938 C 278.488281 602.863281 333.058594 640.429688 400.523438 661.546875 C 467.984375 640.320312 522.554688 602.753906 562.566406 549.847656 C 594.6875 507.394531 617.582031 455.046875 630.695312 394.25 C 652.035156 295.335938 640.144531 205.644531 638.921875 196.972656 L 400.410156 123.066406 Z M 162.121094 197.195312 " fill-opacity="1" fill-rule="nonzero"/><g clip-path="url(#bac5f4f6ac)"><path fill="#c77b3c" d="M 651.367188 255.988281 C 650.589844 219.425781 647.035156 196.195312 646.8125 195.308594 L 646.144531 190.972656 L 401.300781 114.730469 L 400.523438 114.507812 L 154.789062 190.859375 L 154.121094 195.195312 C 154.007812 196.195312 150.453125 219.535156 149.5625 255.878906 C 148.785156 289.554688 150.453125 341.125 162.234375 396.027344 C 175.570312 458.046875 199.023438 511.394531 231.808594 554.738281 C 272.929688 609.085938 328.945312 647.652344 398.300781 669.4375 L 400.410156 670.105469 L 402.523438 669.4375 C 471.875 647.765625 527.890625 609.199219 569.011719 554.738281 C 601.800781 511.394531 625.25 457.933594 638.585938 396.027344 C 650.480469 341.234375 652.035156 289.554688 651.367188 255.988281 Z M 400.410156 129.289062 L 633.363281 201.640625 C 635.808594 221.3125 644.144531 303.226562 624.804688 393.027344 C 611.914062 452.933594 589.351562 504.503906 557.789062 546.179688 C 518.886719 597.640625 465.984375 634.316406 400.523438 655.210938 C 335.058594 634.316406 282.265625 597.640625 243.367188 546.292969 C 211.804688 504.613281 189.242188 453.15625 176.238281 393.25 C 164.566406 339.792969 163.011719 289.445312 163.679688 256.546875 C 164.234375 229.984375 166.347656 210.421875 167.457031 201.753906 Z M 400.410156 129.289062 " fill-opacity="1" fill-rule="nonzero"/></g><g clip-path="url(#0e4db8b14c)"><path fill="#1a2740" d="M 403.488281 221.238281 C 405.460938 223.386719 405.375 227.507812 404.777344 230.253906 C 405.460938 230.984375 409.714844 225.574219 410.355469 225.105469 C 410.261719 228.210938 407.25 230.308594 406.0625 232.832031 C 407.191406 233.246094 410.644531 231.40625 410.785156 232.832031 C 407.824219 234.632812 405.207031 233.304688 402.414062 235.40625 C 398.421875 238.457031 393.65625 243.480469 398.121094 248.289062 C 399.066406 246.226562 401.769531 245.667969 403.058594 244.207031 C 404.347656 242.75 404.820312 239.914062 406.277344 238.414062 L 405.632812 243.136719 L 411.214844 240.558594 C 410.441406 242.75 408.125 243.609375 406.492188 245.066406 L 409.5 247 L 404.046875 246.871094 C 399.539062 249.789062 399.367188 253.308594 403.617188 256.402344 C 403.832031 256.402344 406.921875 254.554688 407.136719 254.296875 C 407.78125 253.652344 408.167969 252.238281 408.855469 251.292969 C 409.542969 250.347656 411.988281 248.117188 411.601562 249.316406 L 409.457031 253.824219 L 417.183594 250.820312 L 412.460938 255.328125 L 416.324219 256.832031 C 414.476562 258.03125 411.558594 255.84375 410.226562 256.058594 C 408.898438 256.273438 406.921875 257.902344 406.664062 258.976562 C 406.40625 260.050781 412.117188 263.441406 413.148438 264.042969 C 416.882812 259.105469 425.382812 258.933594 421.90625 251.121094 C 419.414062 245.582031 415.207031 248.160156 411.644531 244.207031 C 413.792969 244.378906 415.894531 245.453125 418.085938 244.636719 C 417.699219 239.742188 411.085938 239.3125 411.429688 234.121094 C 413.019531 235.535156 414.4375 237.855469 416.796875 237.984375 C 416.625 235.664062 417.871094 234.078125 416.753906 231.800781 C 415.636719 229.527344 411.257812 226.648438 411.214844 222.527344 C 412.375 222.269531 411.945312 222.828125 412.289062 223.386719 C 413.191406 224.890625 413.878906 226.777344 415.507812 227.679688 C 415.679688 226.046875 415.421875 223.171875 416.796875 222.097656 C 417.011719 224.804688 415.980469 228.195312 418.300781 230.253906 L 420.875 221.238281 C 421.132812 223.34375 422.078125 225.617188 421.089844 227.679688 C 421.992188 228.410156 424.050781 224.503906 424.953125 224.246094 C 424.738281 226.003906 423.707031 227.636719 422.636719 228.96875 C 421.5625 230.296875 421.132812 229.742188 420.789062 230.554688 C 420.445312 231.371094 420.015625 235.0625 420.273438 235.40625 C 427.511719 229.828125 427.195312 232.675781 426.714844 223.386719 L 428.644531 228.109375 L 432.726562 222.957031 C 432.523438 226.578125 430.1875 228.824219 428.429688 231.972656 C 431.136719 231.757812 433.796875 230.125 435.730469 228.324219 C 437.660156 226.519531 437.191406 225.445312 438.304688 226.175781 L 435.300781 231.542969 L 442.167969 229.398438 C 437.917969 235.191406 429.289062 232.144531 423.921875 236.265625 C 419.671875 239.527344 421.175781 242.363281 424.351562 245.710938 C 428.53125 240.078125 427.972656 244.9375 429.289062 236.308594 C 431.222656 235.75 429.203125 241.289062 430.792969 240.601562 C 432.382812 239.914062 437.488281 234.632812 437.875 235.019531 C 438.175781 236.394531 434.011719 239.613281 434.011719 239.957031 C 435.085938 241.289062 436.976562 240.171875 438.304688 240.816406 C 436.675781 242.792969 433.882812 241.332031 431.867188 242.105469 C 427.40625 244.621094 425.480469 248.351562 429.03125 252.109375 C 431.480469 250.132812 439.378906 248.5 440.625 245.710938 C 441.871094 242.921875 439.851562 237.46875 441.699219 234.550781 L 442.855469 241.332031 L 443.84375 242.492188 C 444.359375 241.203125 446.292969 239.570312 446.675781 238.414062 C 447.363281 236.351562 445.476562 231.757812 448.136719 229.785156 L 448.136719 235.792969 L 451.398438 231.113281 L 453.71875 228.925781 L 451.140625 234.933594 L 456.507812 232.789062 C 457.152344 233.820312 454.40625 235.320312 453.460938 235.75 C 452.515625 236.179688 450.371094 236.4375 449.984375 236.78125 C 449.597656 237.125 448.78125 239.828125 448.136719 240.515625 C 451.828125 239.957031 454.492188 238.15625 456.9375 235.363281 L 455.4375 239.226562 L 460.160156 238.15625 C 456.894531 241.589844 451.65625 240.644531 447.535156 243.136719 C 443.414062 245.625 444.273438 247.6875 442.125 249.316406 C 447.277344 252.539062 449.511719 248.074219 453.71875 246.097656 L 450.285156 250.820312 L 456.078125 249.101562 C 456.378906 250.90625 452.386719 252.367188 450.714844 252.753906 C 443.84375 254.425781 438.777344 250.691406 432.46875 255.972656 C 430.578125 257.558594 429.71875 259.492188 428.175781 261.125 C 425.726562 263.742188 420.101562 267.5625 421.175781 271.511719 L 423.921875 276.964844 C 427.816406 275.023438 446.265625 276.257812 440.410156 268.59375 C 439.507812 268.035156 435.644531 267.433594 434.914062 267.304688 C 433.007812 267.609375 429.441406 267.273438 428.429688 264.902344 L 433.152344 265.761719 C 433.367188 265.632812 430.535156 262.410156 431.652344 261.46875 C 433.925781 264.515625 435.988281 265.933594 440.023438 265.332031 C 439.207031 264.300781 439.9375 262.324219 439.507812 261.554688 C 439.078125 260.78125 435.042969 258.847656 435.730469 256.316406 L 439.378906 259.75 C 440.152344 259.707031 440.582031 254.210938 441.742188 255.457031 C 441.140625 256.402344 440.753906 261.855469 442.382812 261.46875 C 443.84375 260.007812 444.359375 258.632812 445.089844 256.832031 C 445.820312 255.027344 444.832031 255.671875 446.035156 255.886719 C 446.335938 259.277344 444.703125 261.769531 442.726562 264.257812 L 445.390625 267.90625 C 445.949219 267.90625 449.898438 261.082031 450.757812 259.964844 C 452.816406 257.433594 459.945312 252.023438 459.773438 248.84375 C 459.601562 245.667969 457.496094 244.59375 458.484375 242.148438 L 461.058594 246.871094 L 463.207031 239.570312 C 464.59375 239.824219 462.703125 244.660156 463.207031 246.011719 C 464.066406 246.957031 466.769531 242.578125 467.929688 243.222656 C 467.542969 245.882812 463.335938 247.515625 462.476562 248.714844 C 461.617188 249.917969 461.789062 252.625 460.628906 253.738281 C 471.324219 250.941406 466.363281 248.496094 470.933594 242.578125 L 470.074219 249.015625 C 470.988281 250.351562 477.921875 240.914062 477.804688 243.222656 C 477.804688 243.222656 474.796875 248.160156 474.796875 248.160156 L 481.238281 247.515625 C 478.191406 250.777344 473.167969 248.457031 470.933594 252.023438 C 473.898438 251.722656 477.117188 252.839844 479.949219 251.808594 C 482.785156 250.777344 482.828125 248.074219 484.628906 247.300781 L 482.914062 251.164062 L 488.0625 250.089844 L 481.625 253.738281 L 487.207031 255.027344 C 484.070312 256.617188 480.980469 254.597656 478.40625 254.382812 C 474.289062 254.027344 469.101562 254.550781 465.738281 255.457031 C 464.964844 256.230469 472.867188 258.71875 473.898438 257.175781 L 473.898438 258.03125 C 470.074219 260.480469 465.4375 257.390625 462.132812 257.644531 C 458.828125 257.902344 453.289062 263.355469 453.332031 266.660156 C 455.007812 266.0625 456.765625 266.40625 458.484375 266.0625 C 461.230469 265.503906 463.507812 263.527344 466.210938 262.839844 L 462.347656 267.132812 C 464.023438 267.605469 465.867188 267.949219 467.5 267.132812 C 468.402344 268.292969 464.152344 269.109375 463.378906 269.109375 C 459.300781 269.195312 458.527344 268.078125 453.933594 270.054688 C 449.339844 272.027344 449.8125 274.820312 447.148438 277.867188 C 436.660156 288.015625 418.199219 282.894531 413.878906 302.726562 C 429.714844 296.085938 430.503906 291.460938 449.296875 293.238281 C 451.570312 292.894531 457.796875 288.257812 457.667969 285.808594 C 457.539062 283.363281 456.035156 279.929688 455.863281 279.671875 C 455.351562 278.855469 451.484375 277.609375 452.128906 274.820312 L 455.136719 277.394531 C 455.296875 276.53125 455.464844 272.390625 456.421875 272.671875 C 456.378906 274.691406 456.507812 277.09375 457.925781 278.683594 C 459.6875 276.664062 461.230469 274.691406 461.359375 271.8125 C 464.597656 276.34375 456.929688 280.328125 460.929688 282.976562 C 462.691406 281.085938 464.109375 278.640625 465.867188 276.75 C 467.628906 274.863281 471.320312 272.371094 471.664062 271.8125 C 472.433594 266.855469 474.519531 261.445312 478.535156 258.074219 C 479.261719 258.976562 476.257812 263.398438 476.601562 263.65625 C 479.820312 263.484375 482.054688 261.082031 484.113281 258.933594 C 484.542969 260.136719 482.699219 262.582031 481.753906 263.441406 C 479.175781 265.847656 475.226562 265.417969 475.742188 270.097656 C 486.5625 267.253906 487.265625 266.085938 491.542969 257.304688 C 491.679688 255.816406 490.65625 250.761719 491.671875 249.058594 L 492.957031 255.929688 L 497.035156 251.636719 C 498.109375 253.738281 490.382812 260.996094 491.671875 262.367188 C 496.738281 260.609375 499.613281 256.660156 502.617188 252.496094 C 502.574219 255.242188 500.859375 257.644531 499.398438 259.792969 C 501.929688 259.621094 504.035156 258.074219 506.136719 256.875 C 508.242188 255.671875 507.210938 255.929688 507.554688 256.574219 C 503.605469 262.796875 495.0625 261.167969 490.8125 267.089844 L 500.042969 267.089844 C 500.429688 267.089844 503.691406 265.890625 504.078125 265.546875 C 505.582031 264.300781 506.953125 260.523438 509.058594 259.363281 L 507.339844 264.515625 L 516.570312 259.363281 C 517 260.824219 512.535156 263.828125 512.707031 264.085938 L 520.863281 265.160156 C 518.214844 267.351562 512.707031 265.914062 510.132812 265.589844 C 509.058594 265.847656 507.726562 267.519531 506.265625 267.5625 C 507.839844 269.90625 519.324219 268.480469 521.722656 268.851562 C 519.328125 270.625 515.546875 270.304688 512.707031 271 L 517 274.433594 C 514.039062 275.59375 511.546875 271.46875 510.261719 271.085938 C 500.015625 269.273438 479.09375 270.503906 472.351562 280.015625 C 483.199219 280.855469 481.257812 280.328125 491.585938 276.277344 C 494.847656 275.335938 498.238281 275.421875 501.117188 274.648438 C 503.992188 273.875 503.691406 272.371094 505.410156 272.285156 L 503.691406 275.292969 L 510.5625 276.578125 C 508.410156 278.171875 498.679688 275.144531 498.96875 277.4375 C 501.160156 277.523438 504.59375 280.441406 506.480469 280.441406 L 512.921875 280.441406 C 513.007812 280.441406 513.695312 279.542969 513.996094 280.230469 C 512.320312 281.988281 509.402344 282.203125 507.125 282.160156 C 508.328125 284.050781 510.988281 285.164062 513.136719 285.59375 C 511.191406 287.824219 505.398438 284.066406 504.121094 282.375 C 502.445312 281.300781 496.394531 279.15625 494.460938 279.113281 C 491.070312 279.027344 487.550781 282.890625 484.414062 283.878906 C 486.234375 285.996094 490.601562 286.703125 493.214844 286.925781 C 494.761719 286.882812 497.636719 283.535156 500.300781 283.878906 L 497.292969 286.882812 L 503.734375 288.171875 L 494.289062 289.03125 C 496.695312 291.519531 500.601562 291.820312 503.734375 292.894531 C 503.890625 293.867188 499.035156 293.117188 498.152344 293.324219 L 499.441406 298.046875 C 497.25 297.574219 496.695312 293.238281 496.007812 292.679688 C 495.320312 292.121094 490.726562 289.757812 490.425781 289.671875 C 483.785156 289.289062 480.019531 285.140625 473.039062 285.59375 C 467.242188 286.023438 466.726562 287.398438 464.667969 292.035156 C 467.628906 291.046875 470.203125 293.753906 472.609375 293.753906 C 475.011719 293.753906 477.03125 291.992188 479.261719 292.035156 L 475.828125 294.824219 C 475.828125 295.8125 479.734375 295.425781 480.550781 295.46875 C 479.820312 296.800781 477.503906 296.886719 476.042969 296.757812 C 470.933594 296.371094 467.070312 294.4375 461.875 296.757812 C 458.699219 298.175781 457.152344 301.523438 453.933594 302.984375 C 447.707031 305.859375 442.511719 302.039062 435.472656 307.707031 C 434.785156 308.261719 429.203125 313.757812 429.890625 314.359375 C 444.84375 310.460938 445.296875 311.621094 459.257812 315.261719 C 464.070312 315.25 477.859375 312.488281 475.570312 305.773438 C 474.710938 304.398438 470.675781 302.855469 471.492188 299.761719 L 474.710938 303.199219 L 475.785156 303.625 C 476.128906 303.367188 476.214844 299.589844 477.503906 299.332031 L 477.933594 305.34375 C 478.363281 305.773438 481.710938 304.355469 482.355469 303.96875 C 486.605469 301.609375 483.941406 299.03125 485.230469 295.039062 C 486.558594 295.425781 485.539062 299.464844 486.734375 300.621094 L 490.8125 294.609375 C 492.742188 295.886719 488.714844 300.65625 488.234375 302.339844 L 494.246094 301.265625 C 492.230469 304.3125 488.320312 303.539062 485.703125 304.742188 C 481.472656 307.246094 479.257812 308.070312 478.40625 311.785156 C 486.519531 311.355469 492.144531 305.6875 499.441406 302.984375 C 500.988281 299.417969 502.53125 297.832031 506.09375 296.328125 L 507.167969 290.746094 C 508.75 289.570312 507.769531 294.707031 508.027344 295.46875 C 510.046875 295.210938 511.460938 293.625 512.75 292.25 C 514.039062 290.875 513.695312 289.929688 513.953125 291.734375 C 512.621094 298.089844 504.980469 296.886719 503.734375 302.339844 C 506.523438 302.898438 515.925781 300.792969 517.429688 298.648438 C 518.589844 296.929688 519.019531 293.496094 521.121094 292.035156 C 522.238281 291.949219 521.59375 292.207031 521.421875 292.765625 C 520.90625 294.523438 520.003906 296.199219 519.621094 298.003906 L 528.207031 294.136719 C 523.417969 300.625 513.476562 301.164062 528.851562 301.007812 C 529.234375 301.007812 530.394531 300.191406 531.210938 300.578125 C 524.832031 306.121094 517.253906 299.972656 514.039062 304.398438 C 521.929688 307.234375 524.742188 305.746094 532.5 304.441406 L 527.347656 307.234375 L 533.359375 310.453125 C 530.351562 311.484375 526.488281 308.21875 524.46875 307.960938 C 522.453125 307.707031 519.535156 308.519531 517.257812 308.304688 C 511.125 306.644531 503.382812 305.035156 497.722656 309.378906 C 502.832031 310.796875 508.5 315.820312 514.039062 314.144531 C 519.578125 312.46875 517.429688 309.980469 519.578125 310.667969 L 517 313.886719 L 524.726562 311.742188 C 523.484375 313.929688 520.777344 314.359375 518.71875 315.390625 L 525.585938 317.320312 C 521.980469 319.082031 517.945312 316.507812 515.070312 316.464844 C 512.191406 316.421875 511.160156 317.449219 509.058594 317.320312 C 501.550781 316.046875 495.121094 310.855469 487.378906 316.035156 C 487.121094 317.0625 487.550781 316.722656 487.933594 316.980469 C 489.910156 318.351562 494.933594 320.84375 497.25 320.15625 C 499.570312 319.46875 500.6875 317.234375 502.402344 317.964844 L 499.828125 320.328125 L 505.839844 319.898438 C 504.9375 321.359375 502.617188 321.488281 501.117188 322.042969 C 500.515625 322.902344 504.507812 325.523438 504.980469 326.335938 C 500.988281 326.167969 499.742188 321.359375 495.535156 322.472656 C 495.320312 325.308594 497.765625 326.679688 499.398438 328.484375 C 495.921875 329.300781 493.859375 323.246094 492.957031 322.6875 C 477.46875 314.628906 473.539062 323.078125 459.472656 325.050781 C 458.226562 326.082031 464.921875 327.96875 465.480469 328.054688 C 462.777344 330.71875 457.796875 330.460938 454.621094 328.828125 C 452.816406 327.925781 451.101562 325.308594 449.210938 324.792969 C 442.855469 323.117188 433.195312 329.34375 429.417969 334.28125 C 432.707031 377.988281 439.492188 444.691406 437.234375 483.125 C 440.839844 486.859375 446.292969 489.910156 451.527344 490.296875 C 456.765625 490.683594 460.203125 489.09375 464.753906 490.382812 C 469.089844 491.625 471.792969 495.664062 475.828125 497.335938 C 482.441406 500.085938 491.800781 497.9375 497.722656 503.132812 C 491.414062 502.875 484.886719 503.476562 478.617188 503.132812 C 466.726562 502.488281 455.09375 497.59375 443.199219 500.128906 C 443.425781 502.976562 457.847656 504.121094 461.660156 507.640625 C 467.285156 511.503906 463.164062 508.714844 462.777344 509.101562 C 454.40625 507.597656 446.25 507.210938 438.003906 505.105469 C 432.511719 503.691406 422.507812 499.3125 417.269531 500.941406 C 412.03125 502.574219 416.496094 500.683594 416.667969 501.800781 C 421.476562 504.765625 427.746094 505.277344 431.695312 509.53125 C 426.929688 508.714844 422.121094 508.113281 417.441406 506.824219 C 412.761719 505.535156 406.191406 502.101562 403.574219 502.1875 C 400.953125 502.273438 401.039062 502.960938 400.824219 504.25 C 400.398438 506.996094 408.210938 510.472656 407.179688 511.675781 L 396.1875 507.8125 L 382.707031 511.675781 C 384.167969 508.628906 391.511719 506.695312 392.410156 503.992188 C 394.898438 497 360.246094 510.429688 355.488281 509.144531 C 344.457031 509.871094 353.472656 509.445312 353.558594 508.714844 C 359.097656 505.105469 365.40625 503.5625 371.589844 501.414062 C 371.503906 500.8125 370.988281 500.683594 370.515625 500.597656 C 355.109375 498.664062 338.976562 505.167969 323.976562 507.039062 C 323.546875 506.738281 329.730469 503.648438 330.289062 503.261719 C 330.847656 502.875 331.105469 503.347656 330.847656 502.316406 L 298.21875 503.605469 C 299.851562 501.972656 302.769531 501.113281 305 500.300781 C 307.234375 499.484375 312.988281 497.25 315.734375 496.863281 C 321.960938 496.003906 327.027344 498.453125 333.121094 495.789062 C 347.152344 485.320312 351.296875 495.207031 363.003906 488.535156 C 360.191406 437.636719 365.964844 386.113281 368.242188 335.140625 C 367.855469 332.046875 358.023438 326.464844 355.058594 325.996094 C 350.722656 325.308594 347.246094 326.851562 342.394531 325.78125 C 337.542969 324.707031 333.550781 321.015625 331.492188 320.886719 C 328.226562 320.671875 323.546875 325.78125 319.726562 323.546875 C 315.90625 321.316406 322.132812 322 322.902344 321.53125 C 323.976562 320.886719 324.792969 319.640625 325.78125 318.824219 C 321.746094 317.320312 317.152344 318.007812 312.902344 317.492188 C 311.914062 317.75 309.039062 320.285156 308.394531 321.1875 C 306.933594 323.117188 306.632812 325.910156 303.886719 326.765625 L 305.601562 322.472656 C 303.542969 323.589844 301.007812 323.546875 298.734375 323.117188 C 302.210938 321.488281 306.761719 321.144531 308.179688 316.894531 C 306.332031 316.9375 304.828125 316.164062 302.898438 316.550781 C 300.042969 317.132812 294.308594 323.28125 291.863281 320.328125 C 294.914062 319.511719 297.273438 317.363281 299.59375 315.390625 L 295.898438 313.886719 C 293.539062 313.714844 289.289062 316.507812 288 318.394531 C 286.710938 320.285156 286.667969 322.902344 284.136719 323.332031 L 285.855469 319.46875 C 283.707031 320.542969 281.433594 321.445312 278.984375 321.1875 L 284.953125 317.921875 L 288 314.960938 C 286.238281 314.617188 284.179688 314.53125 283.277344 312.597656 C 287.347656 314.914062 297.75 311.105469 289.375 309.292969 C 282.890625 306.933594 282.847656 312.511719 278.683594 315.089844 C 274.519531 317.664062 275.164062 316.464844 273.402344 316.464844 C 275.835938 314.835938 280.59375 312.640625 280.703125 309.636719 C 277.179688 310.367188 273.660156 310.96875 270.054688 310.195312 C 266.449219 309.421875 267.820312 309.851562 267.820312 309.25 C 269.195312 309.378906 275.894531 308.820312 276.410156 307.75 C 274.261719 306.71875 271.902344 305.34375 271.257812 302.8125 C 280.648438 308.03125 276.972656 306.582031 286.710938 305.816406 C 284.417969 303.472656 278.601562 300.652344 278.769531 297.273438 L 284.566406 301.136719 L 285.855469 296.414062 L 286.238281 302.210938 C 287.355469 303.007812 301.726562 313.871094 300.792969 309.59375 C 299.976562 304.613281 295.597656 304.828125 293.152344 301.351562 L 300.019531 303.710938 L 299.164062 298.988281 C 301.152344 298.742188 301.472656 304.117188 302.082031 305.300781 C 302.726562 307.019531 304.699219 310.152344 305.601562 310.796875 C 306.503906 311.441406 310.410156 311.785156 311.828125 311.871094 C 313.246094 311.957031 314.660156 312.214844 314.1875 311.226562 C 312.601562 307.664062 307.40625 308.992188 306.890625 305 L 311.183594 307.148438 C 311.441406 306.847656 309.507812 303.324219 310.539062 302.425781 C 311.871094 303.96875 312.257812 306.675781 314.617188 307.148438 L 316.121094 301.996094 C 317.582031 304.226562 316.421875 306.71875 315.949219 308.992188 C 318.054688 312.34375 321.488281 311.140625 324.664062 311.441406 C 327.839844 311.742188 329.6875 312.042969 332.175781 312.300781 C 332.5625 306.117188 325.09375 308.863281 324.019531 303.710938 C 325.609375 304.699219 327.199219 305.988281 329.171875 305.859375 L 328.3125 301.136719 L 331.492188 304.957031 L 333.894531 300.707031 C 334.453125 302.683594 333.894531 304.828125 332.691406 306.503906 C 336.214844 309.292969 334.96875 312.300781 339.304688 314.359375 C 345.699219 317.40625 351.925781 314.359375 358.582031 314.832031 C 365.234375 315.304688 363.5625 315.949219 366.09375 316.121094 C 365.25 313.765625 355.726562 305.121094 354.203125 303.753906 C 351.839844 302.382812 346.988281 302.125 344.15625 301.351562 C 339.820312 300.148438 330.246094 296.199219 326.339844 296.414062 C 322.433594 296.628906 320.929688 298.5625 318.054688 298.902344 C 315.175781 299.246094 312.257812 299.417969 310.667969 297.316406 C 313.972656 297.574219 317.453125 297.058594 320.113281 294.953125 C 306.800781 288.535156 304.535156 297.960938 293.496094 296.886719 L 299.078125 294.738281 C 299.078125 294.054688 294.183594 292.765625 295.214844 291.734375 C 298.90625 293.238281 302.296875 293.710938 305.816406 291.390625 C 309.335938 289.074219 306.589844 291.433594 306.375 290.445312 C 303.886719 290.230469 300.40625 288.257812 297.960938 288.34375 C 293.496094 289.792969 289.074219 293.25 283.148438 291.261719 L 290.148438 289.460938 L 293.453125 287.398438 C 291.691406 287.699219 289.074219 286.152344 287.65625 286.152344 C 284.703125 286.757812 281.144531 288.140625 277.996094 286.96875 C 278.121094 285.902344 284.007812 285.792969 285.296875 285.25 L 281.433594 282.03125 L 280.144531 280.101562 C 283.636719 281.996094 288.351562 284.960938 292.164062 284.78125 C 289.632812 282.675781 287.441406 280.398438 286.152344 277.265625 C 286.839844 276.363281 286.882812 277.308594 287.140625 277.609375 C 291.476562 282.332031 291.175781 281.816406 291.519531 275.335938 C 295.492188 281.070312 286.171875 283.507812 302.898438 286.066406 C 303.894531 285.707031 293.203125 277.046875 295.382812 277.050781 C 295.382812 277.050781 300.75 280.484375 300.75 280.484375 C 300.964844 278.769531 300.105469 277.136719 299.933594 275.507812 C 299.765625 273.875 300.019531 274.90625 300.75 274.90625 C 302.941406 279.601562 301.398438 282.972656 306.546875 285.636719 C 311.828125 289.460938 325.652344 290.1875 332.605469 291.347656 C 338.144531 292.292969 343.597656 294.054688 349.265625 294.222656 C 349.4375 294.054688 348.707031 289.929688 348.363281 289.332031 C 347.203125 287.269531 339.175781 284.566406 336.855469 284.566406 C 334.539062 284.566406 331.492188 287.699219 329.085938 285.421875 L 333.808594 284.351562 C 334.066406 283.363281 333.636719 283.664062 333.25 283.363281 C 332.304688 282.632812 330.890625 282.203125 330.375 280.914062 C 333.25 281.558594 335.914062 283.105469 338.960938 282.632812 L 335.957031 277.480469 C 336.386719 276.964844 341.109375 282.160156 341.792969 282.589844 C 343.769531 283.75 346.386719 283.535156 348.363281 284.78125 C 350.476562 275.082031 337.449219 273.1875 330.632812 275.035156 C 324.921875 276.835938 326.898438 277.78125 323.847656 281.558594 C 320.800781 285.335938 321.144531 284.609375 319.984375 284.136719 C 322.046875 282.460938 322.859375 279.84375 323.847656 277.480469 C 323.546875 277.265625 319.210938 277.78125 318.566406 277.996094 C 315.871094 280.285156 312.347656 283.164062 308.394531 282.632812 L 313.246094 279.972656 L 315.691406 277.480469 C 313.589844 277.082031 309.078125 276.820312 307.964844 275.335938 C 314.402344 274.90625 322.476562 276.234375 327.710938 271.898438 C 325.996094 271.855469 323.71875 270.054688 322.261719 269.839844 C 318.332031 270.121094 311.445312 272.785156 307.964844 268.894531 C 311.65625 269.453125 315.089844 268.894531 318.695312 268.035156 C 317.496094 267.132812 314.402344 264.644531 313.117188 264.34375 C 311.828125 264.042969 305.644531 267.519531 302.8125 265.460938 L 309.679688 263.097656 C 307.0625 262.367188 304.273438 261.253906 302.382812 259.234375 L 310.109375 261.167969 C 308.738281 259.191406 306.761719 257.304688 306.675781 254.726562 C 309.59375 257.773438 312.257812 261.296875 316.335938 262.882812 C 316.046875 261.359375 312.886719 255.058594 314.832031 254.726562 C 317.023438 260.394531 319.554688 265.375 325.78125 267.175781 L 324.234375 262.710938 L 321.273438 257.945312 C 321.1875 257.601562 321.703125 257.6875 321.917969 257.730469 C 325.050781 258.71875 327.410156 265.847656 331.148438 267.820312 C 334.882812 269.796875 343.941406 268.808594 349.222656 271.425781 C 347.527344 266.96875 337.203125 264.71875 335.054688 262.195312 C 332.734375 261.425781 329.429688 262.753906 327.328125 260.480469 L 332.476562 260.265625 C 331.449219 259.492188 330.074219 256.617188 329.34375 256.101562 C 328.613281 255.585938 327.027344 255.457031 325.996094 254.898438 C 324.964844 254.339844 321.316406 251.207031 323.890625 252.28125 C 326.46875 253.351562 327.96875 254.46875 328.140625 254.253906 L 326.425781 248.457031 L 327.285156 248.246094 C 328.65625 252.367188 331.105469 256.144531 334.796875 258.546875 L 332.003906 250.390625 C 333.121094 250.132812 332.777344 250.734375 333.121094 251.207031 C 334.023438 252.324219 334.539062 253.738281 335.65625 254.683594 L 338.875 251.25 C 339.21875 252.921875 336.515625 255.199219 336.472656 256.1875 C 337.171875 261.4375 344.164062 263.535156 348.535156 264.988281 C 350.253906 265.503906 348.621094 261.425781 348.320312 261.039062 C 348.019531 260.652344 341.191406 256.660156 342.308594 255.585938 L 348.320312 258.589844 L 347.03125 254.082031 L 347.890625 253.867188 L 351.109375 259.878906 L 353.902344 256.015625 C 354.460938 258.460938 351.667969 261.167969 351.753906 263.011719 C 351.96875 266.621094 353.773438 268.679688 354.847656 271.597656 C 355.917969 274.519531 355.703125 276.707031 357.335938 279.199219 C 366.792969 275.0625 355.746094 266.882812 357.335938 260.351562 L 359.695312 265.503906 L 362.273438 259.0625 L 361.628906 264.214844 L 365.921875 261.640625 C 366.695312 262.582031 362.445312 266.0625 361.671875 266.621094 L 363.777344 271.941406 C 364.632812 272.628906 367.253906 263.140625 368.5 262.925781 L 367.640625 269.367188 C 368.199219 269.96875 371.203125 267.820312 371.71875 267.21875 C 372.492188 270.011719 367.511719 270.785156 366.566406 271.941406 C 365.621094 273.101562 365.0625 277.4375 363.777344 279.199219 C 365.320312 279.371094 366.953125 280.058594 368.5 279.414062 C 370.042969 278.769531 371.546875 275.335938 372.578125 274.90625 C 373.605469 274.476562 373.390625 274.992188 373.21875 275.550781 L 371.074219 279.628906 L 377.515625 278.125 C 375.496094 280.484375 372.320312 281.214844 369.355469 281.773438 L 374.078125 284.78125 C 371.203125 285.851562 368.925781 283.019531 366.996094 282.675781 C 364.074219 282.117188 359.78125 282.332031 359.3125 286.023438 C 360.300781 297.136719 376.136719 296.394531 383.566406 301.78125 C 385.113281 299.933594 386.445312 297.746094 388.074219 295.941406 C 389.707031 294.136719 393.097656 291.5625 393.914062 290.1875 C 395.414062 282.882812 380.351562 280.417969 376.957031 274.046875 C 373.179688 268.765625 375.367188 263.269531 371.160156 258.804688 C 365.921875 253.308594 361.371094 254.8125 354.675781 253.824219 C 347.976562 252.839844 342.867188 250.003906 336.683594 248.628906 C 334.496094 248.117188 330.804688 247.214844 329.945312 244.894531 C 332.261719 246.269531 334.96875 247 337.671875 247.042969 C 336.386719 245.410156 334.28125 243.351562 334.882812 241.03125 C 336.855469 244.378906 339.648438 246.828125 343.253906 248.328125 C 343.285156 247.265625 339.507812 242.25 341.492188 242.320312 C 345.144531 250.089844 352.527344 251.25 360.382812 250.90625 C 355.429688 245.164062 343.160156 245.941406 341.277344 237.167969 C 341.835938 237.941406 346.859375 242.578125 347.503906 241.890625 C 348.144531 240.722656 345.589844 235.339844 347.074219 235.921875 L 349.738281 243.136719 L 354.375 244.507812 C 352.871094 241.632812 351.066406 238.457031 351.582031 235.0625 C 355.53125 246.054688 366.695312 249.445312 375.410156 255.671875 C 376.054688 251.679688 376.613281 249.617188 373.261719 246.871094 C 369.328125 242.535156 361.8125 245.226562 359.523438 240.6875 C 361.714844 241.71875 363.949219 242.234375 366.394531 241.976562 L 365.320312 238.542969 C 368.328125 242.578125 373.007812 243.523438 376.914062 246.269531 C 378.585938 246.785156 376.398438 241.160156 378.414062 241.546875 L 379.703125 249.273438 C 383.09375 248.246094 382.535156 244.9375 384.425781 242.835938 L 383.996094 247.558594 L 387.214844 244.980469 C 386.695312 253.167969 374.394531 245.351562 381.59375 267.304688 C 383.894531 271.363281 387.625 274.136719 387.816406 267.089844 C 387.601562 264 383.4375 259.363281 386.101562 256.574219 C 386.054688 258.207031 386.554688 260.730469 387.816406 261.726562 C 387.902344 259.449219 388.460938 256.230469 390.394531 254.855469 L 389.535156 259.148438 C 390.769531 259.863281 393.132812 255.886719 392.96875 257.644531 L 389.578125 261.597656 L 390.351562 266.875 C 391.679688 268.035156 394.6875 261.984375 395.71875 261.296875 L 394.214844 266.449219 L 398.507812 265.160156 C 397.390625 267.949219 393.828125 267.519531 392.238281 268.980469 C 390.652344 270.441406 389.964844 272.84375 390.523438 273.746094 C 391.082031 274.648438 397.691406 276.535156 399.066406 277.222656 C 400.441406 277.910156 404.433594 281.171875 405.460938 280.957031 C 414.5625 276.253906 406.191406 270.105469 401.683594 265.546875 C 385.78125 248.183594 398.917969 240.976562 373.992188 239.144531 C 370.601562 238.414062 370.816406 237.8125 369.441406 237.640625 C 365.449219 237.210938 362.746094 238.628906 358.238281 236.394531 C 357.421875 235.964844 355.015625 234.632812 355.746094 233.734375 C 358.796875 235.835938 362.660156 236.007812 366.265625 235.878906 C 364.589844 233.648438 361.457031 231.757812 361.757812 228.582031 C 364.203125 232.316406 368.113281 234.589844 372.277344 235.878906 L 368.839844 227.9375 L 369.699219 227.722656 C 373.824219 235.671875 376.355469 237.550781 385.15625 237.597656 C 380.210938 229.8125 374.445312 231.199219 373.136719 225.574219 C 373.949219 226.175781 377.855469 229.65625 378.714844 229.011719 C 378.121094 227.378906 376.984375 223.734375 378.285156 222.570312 C 378.796875 225.742188 382.390625 232.789062 385.15625 232.832031 L 384.296875 222.957031 C 385.542969 222.742188 384.984375 223.257812 385.199219 223.945312 C 385.414062 224.632812 386.359375 229.828125 387.085938 229.785156 L 391.167969 223.773438 C 389.84375 233.734375 382.417969 230.347656 392.667969 240.515625 C 395.417969 238.5 392.753906 235.492188 392.453125 232.574219 C 392.152344 229.65625 392.109375 227.421875 393.742188 226.347656 L 393.742188 231.070312 C 395.503906 231.070312 395.761719 228.710938 397.175781 228.066406 C 397.261719 228.96875 396.832031 229.785156 396.402344 230.511719 C 394.730469 233.347656 393.957031 232.273438 395.890625 236.222656 C 396.273438 236.523438 399.710938 233.90625 400.183594 233.433594 C 404.476562 229.355469 401.210938 230.125 398.980469 226.90625 C 396.746094 223.6875 397.691406 224.890625 397.605469 223.773438 L 402.113281 228.066406 L 403.1875 227.421875 L 403.1875 221.238281 Z M 403.488281 221.238281 " fill-opacity="1" fill-rule="nonzero"/></g></svg>